<?xml version="1.0" standalone="no"?>
<!DOCTYPE svg PUBLIC "-//W3C//DTD SVG 20010904//EN"
 "http://www.w3.org/TR/2001/REC-SVG-20010904/DTD/svg10.dtd">
<svg version="1.0" xmlns="http://www.w3.org/2000/svg"
 width="512.000000pt" height="512.000000pt" viewBox="0 0 512.000000 512.000000"
 preserveAspectRatio="xMidYMid meet">

<g transform="translate(0.000000,512.000000) scale(0.100000,-0.100000)"
fill="#000000" stroke="none">
<path d="M4522 5060 c-45 -33 -82 -63 -82 -66 0 -4 24 -37 53 -73 97 -122 158
-234 200 -366 39 -126 51 -219 44 -368 -9 -198 -38 -308 -175 -657 -44 -113
-56 -157 -56 -200 -1 -74 37 -139 101 -176 l46 -27 -7 -82 c-13 -181 -60 -352
-196 -725 -153 -419 -300 -763 -458 -1073 -58 -114 -107 -205 -110 -203 -5 6
38 140 83 256 18 47 36 111 40 142 18 145 -59 478 -192 823 -35 94 -66 171
-68 173 -1 2 -199 61 -440 133 l-437 129 -126 -107 c-70 -60 -139 -119 -154
-131 l-28 -24 -116 104 c-64 56 -131 115 -149 130 l-33 28 -428 -125 c-236
-69 -438 -129 -450 -134 -51 -22 -225 -550 -264 -801 -12 -80 -9 -426 4 -470
7 -23 6 -23 -14 5 -92 129 -277 481 -375 715 -150 356 -308 851 -340 1065 -22
149 -22 150 25 164 84 25 144 107 142 196 -1 28 -15 129 -31 225 -62 365 -97
786 -87 1041 6 137 14 206 42 361 l6 37 -93 29 c-52 16 -98 26 -102 22 -16
-14 -46 -201 -57 -360 -23 -314 14 -790 99 -1247 10 -57 15 -103 11 -103 -4 0
-21 5 -37 11 -45 15 -95 -8 -117 -56 -24 -51 -31 -161 -17 -285 13 -116 81
-431 110 -515 23 -66 84 -158 120 -185 24 -17 29 -30 41 -107 70 -480 319
-1023 661 -1443 130 -160 300 -286 574 -425 99 -50 198 -103 221 -117 109 -70
281 -140 433 -177 215 -53 474 -7 728 130 59 32 185 96 278 143 179 88 314
170 455 273 l85 62 107 193 c293 529 514 1040 583 1342 21 95 26 107 67 148
64 67 102 152 142 323 49 210 66 313 73 440 9 178 -24 260 -107 260 l-38 0 23
60 c134 350 156 418 192 595 21 107 24 396 4 485 -54 244 -143 420 -321 638
-3 4 -43 -20 -88 -53z m-1503 -2844 c178 -27 449 -98 457 -120 2 -6 12 -92 23
-191 l20 -180 -92 -88 c-200 -193 -463 -364 -576 -375 -85 -8 -99 3 -182 151
l-75 132 -62 3 -63 3 -63 -134 c-35 -74 -71 -137 -81 -140 -79 -31 -285 68
-529 254 -50 37 -114 90 -143 116 l-51 48 20 200 c12 110 22 201 22 202 1 2
56 16 122 33 143 36 360 75 504 89 58 6 119 13 135 15 71 10 516 -4 614 -18z"/>
<path d="M1429 3855 c-113 -41 -186 -105 -233 -205 -28 -59 -31 -74 -31 -160
1 -82 4 -103 28 -156 101 -219 381 -293 574 -150 103 76 155 177 155 306 0
169 -109 319 -266 365 -60 18 -178 18 -227 0z"/>
<path d="M3379 3847 c-68 -29 -105 -54 -151 -105 -100 -110 -123 -284 -56
-419 102 -205 357 -275 550 -152 251 162 222 540 -52 668 -80 38 -212 41 -291
8z"/>
</g>
</svg>
